<svg version="1.1" xmlns="http://www.w3.org/2000/svg" xmlns:xlink="http://www.w3.org/1999/xlink" width="481.14793" height="172.88346" viewBox="0,0,481.14793,172.88346"><defs><linearGradient x1="-3.64417" y1="341.9029" x2="475.50376" y2="341.9029" gradientUnits="userSpaceOnUse" id="color-1"><stop offset="0" stop-color="#66a2ff"/><stop offset="1" stop-color="#ffffff"/></linearGradient><linearGradient x1="73.0195" y1="298.41101" x2="92.18541" y2="298.41101" gradientUnits="userSpaceOnUse" id="color-2"><stop offset="0" stop-color="#66a2ff"/><stop offset="1" stop-color="#ffffff"/></linearGradient><linearGradient x1="91.20255" y1="264.99351" x2="108.89416" y2="264.99351" gradientUnits="userSpaceOnUse" id="color-3"><stop offset="0" stop-color="#66a2ff"/><stop offset="1" stop-color="#ffffff"/></linearGradient><linearGradient x1="94.15115" y1="297.551" x2="179.16919" y2="297.551" gradientUnits="userSpaceOnUse" id="color-4"><stop offset="0" stop-color="#66a2ff"/><stop offset="1" stop-color="#ffffff"/></linearGradient><linearGradient x1="111.84276" y1="265.46358" x2="144.27739" y2="265.46358" gradientUnits="userSpaceOnUse" id="color-5"><stop offset="0" stop-color="#66a2ff"/><stop offset="1" stop-color="#ffffff"/></linearGradient><linearGradient x1="144.27739" y1="267.6964" x2="173.27199" y2="267.6964" gradientUnits="userSpaceOnUse" id="color-6"><stop offset="0" stop-color="#66a2ff"/><stop offset="1" stop-color="#ffffff"/></linearGradient><linearGradient x1="183.34066" y1="284.15943" x2="202.26658" y2="284.15943" gradientUnits="userSpaceOnUse" id="color-7"><stop offset="0" stop-color="#66a2ff"/><stop offset="1" stop-color="#ffffff"/></linearGradient><linearGradient x1="183.5921" y1="305.04536" x2="198.33511" y2="305.04536" gradientUnits="userSpaceOnUse" id="color-8"><stop offset="0" stop-color="#66a2ff"/><stop offset="1" stop-color="#ffffff"/></linearGradient><linearGradient x1="290.72466" y1="252.70767" x2="330.53079" y2="252.70767" gradientUnits="userSpaceOnUse" id="color-9"><stop offset="0" stop-color="#66a2ff"/><stop offset="1" stop-color="#ffffff"/></linearGradient><linearGradient x1="258.78146" y1="281.94798" x2="289.25036" y2="281.94798" gradientUnits="userSpaceOnUse" id="color-10"><stop offset="0" stop-color="#66a2ff"/><stop offset="1" stop-color="#ffffff"/></linearGradient><linearGradient x1="329.05649" y1="278.50794" x2="371.81123" y2="278.50794" gradientUnits="userSpaceOnUse" id="color-11"><stop offset="0" stop-color="#66a2ff"/><stop offset="1" stop-color="#ffffff"/></linearGradient><linearGradient x1="328.07363" y1="213.14725" x2="371.3198" y2="213.14725" gradientUnits="userSpaceOnUse" id="color-12"><stop offset="0" stop-color="#66a2ff"/><stop offset="1" stop-color="#ffffff"/></linearGradient><linearGradient x1="257.30716" y1="213.63868" x2="289.74179" y2="213.63868" gradientUnits="userSpaceOnUse" id="color-13"><stop offset="0" stop-color="#66a2ff"/><stop offset="1" stop-color="#ffffff"/></linearGradient></defs><g transform="translate(4.64417,-190.90537)"><g data-paper-data="{&quot;isPaintingLayer&quot;:true}" fill-rule="nonzero" stroke-linecap="butt" stroke-linejoin="miter" stroke-miterlimit="10" stroke-dasharray="" stroke-dashoffset="0" style="mix-blend-mode: normal"><path d="M-3.64417,362.78883v-41.77187h479.14793v41.77187z" fill="url(#color-1)" stroke="#000000" stroke-width="2"/><path d="M73.0195,319.54266v-42.2633h19.16592v42.2633z" fill="url(#color-2)" stroke="#000000" stroke-width="2"/><path d="M91.20255,275.80505v-21.62309h17.69162v21.62309z" fill="url(#color-3)" stroke="#000000" stroke-width="2"/><path d="M94.15115,318.80551v-42.50902h85.01804v42.50902z" fill="url(#color-4)" stroke="#000000" stroke-width="2"/><path d="M111.84276,275.80505v-20.68295h32.43463v20.68295z" fill="url(#color-5)" stroke="#000000" stroke-width="2"/><path d="M144.27739,273.83932v-12.28584h28.99459v12.28584z" fill="url(#color-6)" stroke="#000000" stroke-width="2"/><path d="M183.34066,293.00524v-17.69162h18.92591v17.69162z" fill="url(#color-7)" stroke="#000000" stroke-width="2"/><path d="M183.5921,315.61119v-21.13165h14.74301v21.13165z" fill="url(#color-8)" stroke="#000000" stroke-width="2"/><path d="M290.72466,318.55979l0,-83.98274c2.21911,-3.77976 4.73283,-7.81863 6.8462,-9.73988l4.41646,-6.62469c1.89703,-1.37628 3.70127,-2.89051 5.6911,-4.12884c8.32436,-5.18047 14.77823,-8.13154 21.56907,-14.75127c0.42693,-0.41618 0.85578,-0.83211 1.28331,-1.25008l0,120.47749z" fill="url(#color-9)" stroke="#000000" stroke-width="2"/><path d="M258.78146,322.49126v-46.86146c3.22694,-2.5967 6.44825,-5.89289 8.01691,-7.7626c7.06797,-8.42447 13.93759,-17.15048 19.88444,-26.46251h2.56755v81.08657z" fill="url(#color-10)" stroke="#000000" stroke-width="2"/><path d="M329.05649,318.55979v-80.10371h16.13055c1.61864,6.05319 3.39537,12.02888 5.4849,17.81153c3.14634,8.70733 6.63036,16.22202 10.56132,24.65833c1.26852,2.7224 3.24198,5.08227 4.35344,7.87158c1.76699,4.4344 4.07707,8.6795 5.98791,13.04053c0.08498,0.19395 0.16354,0.39083 0.23662,0.59023v16.13149z" fill="url(#color-11)" stroke="#000000" stroke-width="2"/><path d="M328.07363,239.43896l0,-38.995c0.39045,-0.35904 0.78159,-0.72919 1.17386,-1.11157c1.93671,-1.88791 3.9129,-3.77078 5.62542,-5.86209c0.38413,5.05144 1.70118,10.21522 2.69589,14.11324c2.66996,10.46291 5.02188,21.2872 7.88268,31.85543z" fill="url(#color-12)" stroke="#000000" stroke-width="2"/><path d="" fill="url(#color-13)" stroke="#000000" stroke-width="2"/><path d="M370.96624,285.61602c2.47487,-0.35355 2.82843,2.12132 2.82843,2.12132l0.49026,3.43193c0.06536,0.43843 0.18342,1.17705 0.31812,2.062l0.6425,1.2494c0.29727,1.48633 0.69112,2.93697 1.04925,4.38484c0.73121,-2.23617 2.03014,-4.25564 3.02618,-6.39072l2.36175,6.34198c0,4.30994 0.26024,8.71931 -0.54042,12.98581c-0.32376,1.72519 -0.38167,3.60769 -1.14268,5.17029c2.93022,-0.24567 6.75381,-1.15948 8.3867,-3.21054c0.36335,-0.45641 0.03382,-1.17526 0.17456,-1.74141c0.50326,-2.02438 0.58893,-4.13071 0.93819,-6.18725c0.93107,-5.48237 3.59847,-10.99415 0.76043,-16.54051c-1.87268,-3.65975 -6.80841,-3.99274 -9.72175,-6.15606c-0.97475,-0.72381 -1.40378,-1.98237 -2.15049,-2.9397c-3.95436,-5.0697 -6.72694,-11.75883 -11.68612,-15.80069c-5.76952,-5.59168 -10.05635,-12.19837 -12.53491,-19.90579c-2.4153,-7.5107 -2.51028,-15.99817 -6.62546,-22.95219c-3.58836,-6.06378 -9.87825,-10.90478 -12.46172,-17.56438c-0.89107,-2.29698 -0.65169,-4.39324 -0.65963,-6.7987c0,0 0,-2.5 2.5,-2.5c2.5,0 2.5,2.5 2.5,2.5c-0.00409,1.07338 -0.21294,3.71467 0.32324,4.99571c2.64126,6.31056 8.68063,10.97517 12.10997,16.83598c4.31326,7.37145 4.52621,16.02368 7.07375,23.95354c2.19706,6.83889 5.98128,12.76944 11.11485,17.7151c5.19886,4.4129 8.21875,11.06627 12.33787,16.51057c0.5013,0.66258 0.66713,1.61872 1.3458,2.09801c3.75035,2.64855 8.43244,3.07092 10.91847,7.60409c3.60919,6.5812 0.87604,13.19401 -0.22244,19.82559c-0.43892,2.6498 0.02328,7.4448 -1.83585,9.76295c-3.25812,4.06256 -9.51147,5.5185 -14.38522,5.56548c-1.14668,0 -2.29336,0 -3.44004,0l-0.21747,-0.13829c-1.36437,0.20491 -2.41367,-1.50598 -3.61406,-2.29816l-0.09994,-0.06355l3.93147,-2.5c1.14668,0 2.29336,0 3.44004,0c0.53201,0.00674 1.14348,-0.01477 1.79976,-0.06979c-0.09415,0.19331 -0.19905,0.38173 -0.31655,0.56434c-1.19851,1.86268 -2.86656,3.85645 -5.0268,4.3457c-0.03822,0.00866 -0.07619,0.01579 -0.11392,0.02145l-3.61406,-2.29816c-0.03319,-0.02191 -0.0665,-0.04311 -0.09994,-0.06355c1.42826,-1.61529 3.55668,-2.67545 4.56826,-4.5796c0.88582,-1.66743 1.27208,-3.82441 1.41539,-6.10664c-1.28442,-1.20261 -2.60536,-2.37489 -3.67763,-3.7536c-0.2583,0.39851 -0.50848,0.80013 -0.73195,1.21196l-3.5639,-6.12402c-0.00519,-1.78173 -0.40857,-3.60734 -0.01558,-5.34519c0.15713,-0.69484 0.37124,-1.3721 0.61898,-2.039c-0.02532,-0.30685 -0.05905,-0.61177 -0.10439,-0.91398l-0.4926,-3.44814c0,0 -0.35355,-2.47487 2.12132,-2.82843z" fill="#66a2ff" stroke="none" stroke-width="0.5"/><path d="M374.2684,319.54266v-30.46889h14.25158v30.46889z" fill="#66a2ff" stroke="#000000" stroke-width="2"/><path d="M397.85722,257.13057v-5.40577h0.49143v5.40577z" fill="#66a2ff" stroke="#000000" stroke-width="2"/></g></g></svg>