<svg version="1.1" xmlns="http://www.w3.org/2000/svg" xmlns:xlink="http://www.w3.org/1999/xlink" width="348.12868" height="204.15419" viewBox="0,0,348.12868,204.15419"><g transform="translate(-97.87132,-27.64399)"><g data-paper-data="{&quot;isPaintingLayer&quot;:true}" fill="#ff0000" fill-rule="nonzero" stroke="none" stroke-width="0.5" stroke-linecap="butt" stroke-linejoin="miter" stroke-miterlimit="10" stroke-dasharray="" stroke-dashoffset="0" style="mix-blend-mode: normal"><path d="M180.75856,165.08118c1.99771,-7.76517 4.16232,-15.51159 5.28007,-23.42605c1.39196,-9.85602 1.31741,-19.86162 2.96988,-29.69468c-0.02795,-12.44905 0.79669,-25.17026 0,-37.5876c-0.27292,-4.25375 -1.45307,-8.6614 -2.15251,-12.86323c-1.71751,-10.31786 -4.24406,-20.58741 -6.78137,-30.73663c0,0 -0.60634,-2.42536 1.81902,-3.0317c2.42536,-0.60634 3.0317,1.81902 3.0317,1.81902c2.56966,10.27866 5.11901,20.67833 6.86262,31.12731c0.7244,4.34112 1.9137,8.87752 2.2035,13.27283c0.83603,12.67971 0.02574,25.70014 0,38.4124c-1.64208,9.93149 -1.59611,20.03023 -3.00199,29.9816c-1.63734,11.58974 -5.48006,22.81239 -7.82194,34.26293c-1.00488,4.91334 -2.07069,9.80738 -3.15279,14.70441c-0.0844,0.38195 -2.08407,9.49659 -2.21478,9.82471c-1.69546,4.2559 -4.91141,8.12916 -8.06774,11.32345c-3.47664,3.47664 -6.67875,7.29608 -10.94911,9.8423c-12.41719,7.40381 -27.16834,9.3544 -41.28312,9.3544c-4.89965,0 -10.15226,0.6996 -14.79057,-1.12829c-1.44146,-0.56806 -3.4779,-0.55957 -4.23754,-1.90993c-1.05886,-1.88227 -0.37458,-4.30431 -0.47189,-6.46178c-0.18154,-4.02464 -0.0009,-8.09494 0.0031,-12.12453c0.59749,-6.01172 0.99502,-11.83598 0.9969,-17.87624c0.0003,-0.97018 -0.05483,-6.53255 0.2194,-7.02337c2.38825,-4.27447 8.07749,-7.24978 12.22217,-9.24075c5.13447,-2.46643 9.79647,-6.15006 15.55577,-7.18406c1.10869,-0.19905 8.82982,-0.67843 10.12598,-0.85799c8.82725,-1.22284 17.43318,-2.19307 26.37669,-2.19307c3.8852,0.00488 7.59626,-0.47362 11.44698,-0.93807l2.76245,-0.93364c0,0 2.16768,-0.72256 3.04913,1.28624zM179.97307,168.18142c-0.36438,0.25091 -0.6825,0.35695 -0.6825,0.35695l-3.23755,1.06636c-4.21969,0.54323 -8.29241,1.05698 -12.55302,1.06193c-8.71488,0 -17.09066,0.96076 -25.6924,2.14602c-3.24856,0.44763 -6.57459,0.23868 -9.80494,0.80292c-5.31857,0.929 -9.70741,4.55113 -14.44423,6.81594c-2.38118,1.13851 -4.65141,2.57013 -6.66048,4.28182c-1.01034,0.86079 -2.39341,1.36495 -3.11736,2.47744c-0.36144,0.55542 0.19021,1.31384 0.2194,1.97586c0.04405,0.99929 0.00031,2.00051 0,3.00077c-0.0019,6.12108 -0.39014,12.03334 -1.0031,18.12376c0.00425,3.93673 0.24896,7.94811 0.0031,11.87547c-0.07434,1.18753 -0.87065,2.41718 -0.47189,3.53822c0.19714,0.55424 1.18885,-0.04034 1.76246,0.09007c4.47548,1.0175 8.514,0.87171 13.20943,0.87171c13.2426,0 27.03381,-1.73103 38.71688,-8.6456c3.88643,-2.30016 6.82314,-5.92995 9.97982,-9.08663c2.7495,-2.71117 5.54319,-6.09905 7.00332,-9.74762c1.13325,-2.83174 1.27441,-5.96561 1.93251,-8.94384c1.07646,-4.87153 2.13624,-9.74011 3.13647,-14.62774c0.50882,-2.48635 1.08984,-4.96228 1.70406,-7.43381z"/><path d="M388.62391,205.67277c0.50435,0.03927 2.37609,0.33071 2.37609,2.49389c0,2.5 -2.5,2.5 -2.5,2.5l-2.86385,-0.83384c-2.02227,-2.26221 -4.04454,-4.52442 -6.0668,-6.78663c-6.46654,-7.23811 -12.51968,-14.74815 -18.97242,-22.00748c-4.33973,-4.88219 -9.08038,-9.7613 -13.3182,-14.90786c-2.33618,1.78594 -5.36554,4.09804 -5.51734,4.19426c-5.72162,3.62648 -13.6135,5.25613 -20.09025,6.79926c-4.50455,1.07324 -10.60021,3.58543 -15.20691,3.54204c-2.70173,-0.02545 -5.02058,-1.16309 -7.26142,-2.43191c-1.92806,1.60161 -4.14791,2.93086 -6.38245,4.53896c-0.37158,0.26741 -8.22856,5.93263 -8.43857,6.03783c-5.85681,2.93405 -13.51268,2.07595 -19.92712,2.59393c-4.86504,0.39286 -10.47781,1.56335 -15.33715,1.20863c-1.76388,-0.12876 -3.44013,-0.82645 -5.17433,-1.17343c-0.69034,-0.13812 -1.60217,-0.23872 -2.5835,-0.38057c-1.52578,2.57466 -2.44274,5.37824 -1.45044,8.43949c0.9593,2.95944 3.27879,5.28833 4.8794,7.95602c1.96406,3.36442 4.79053,6.9516 8.66124,8.39882c1.3874,0.51873 2.9304,0.43472 4.39303,0.6685c4.9367,0.78908 9.86533,1.63949 14.79591,2.46598c4.16251,0.69775 8.55995,1.57428 12.56812,-0.44029c5.50902,-2.76892 10.75838,-7.94993 15.74055,-11.60892l1.07262,-0.78775c0,0 2.01497,-1.47983 3.4948,0.53514c1.47983,2.01497 -0.53514,3.4948 -0.53514,3.4948l-1.07262,0.78775c-4.02981,2.95957 -8.04889,5.93461 -12.08982,8.87898c-1.46603,1.0682 -2.77438,2.40334 -4.40915,3.18938c-6.61165,3.17905 -13.73287,1.19263 -20.52333,0.06089c-4.72057,-0.78676 -10.8785,-0.91631 -15.33484,-2.61948c-4.92385,-1.88184 -8.43753,-6.19395 -11.04884,-10.45133c-0.4262,-0.71034 -5.27296,-8.73642 -5.41051,-9.19383c-1.25366,-4.1688 -0.29136,-7.8173 1.49851,-11.18463c-0.37607,-0.23557 -0.71093,-0.5099 -0.98836,-0.8314l-0.36618,-0.20924c-1.36361,0.46456 -2.50246,-0.67429 -2.50246,-0.67429l-2,-2c-0.45241,-0.45241 -0.73223,-1.07741 -0.73223,-1.76777c0,-1.38071 1.11929,-2.5 2.5,-2.5c0.46716,0 0.90439,0.12813 1.27847,0.35117l4.3031,2.45891l-0.21843,0.38225c0.48658,0.15886 0.97383,0.31728 1.46177,0.47341c0.85428,-1.20192 1.73948,-2.37853 2.57961,-3.54292c0.24908,-0.34522 5.9147,-8.20992 6.06841,-8.37109c5.69943,-5.97623 13.99622,-10.23579 20.81982,-14.78486c6.78427,-4.52285 12.14875,-10.0976 20.28399,-11.82269c1.87895,-0.39844 3.73384,-1.27301 5.64953,-1.13392c4.31495,0.31327 6.3756,3.68367 9.04786,6.45131c0.08037,0.77446 0.17824,1.56786 0.2836,2.37514c4.62173,-2.33226 9.70094,-4.60073 14.27439,-6.01685c4.87233,-1.50866 10.37757,-1.43098 15.41617,-1.85199c0.63004,-0.05264 1.25691,-0.10536 1.88083,-0.15544c-1.26024,-3.14662 -1.88478,-6.12571 -2.16618,-10.10662c-0.33806,-4.78239 -1.85309,-8.33418 4.33809,-10.60611c0.8043,-0.29515 9.98076,1.93976 10.68019,2.10091c2.87666,1.88867 4.99396,2.92068 7.06947,5.86947c0.16274,0.23121 4.07247,8.72704 4.12392,8.84248c0.79148,1.77571 2.10218,3.421 2.31442,5.3535c0.19649,1.78908 -0.93029,4.96003 -2.16996,7.32281c0.27845,0.69606 0.53154,2.01536 -0.93232,2.99126c-0.71945,0.47963 -1.35595,0.54454 -1.88082,0.42423c-1.52092,1.18504 -4.04902,3.11994 -5.63415,4.3309c3.09322,3.8012 6.47427,7.41604 9.64039,10.97793c7.55937,8.50429 14.71188,17.26774 22.28488,25.73403c1.77562,1.9863 3.55125,3.9726 5.32687,5.9589zM291.20656,173.16171c-0.79464,-1.38706 0.34102,-3.18334 0.65541,-4.75068c1.10384,-5.50305 2.61386,-8.71595 7.53908,-11.46061c-0.08855,-0.93395 -0.15599,-1.85242 -0.17518,-2.74533c-0.88621,-0.83369 -3.19952,-3.54514 -4.95214,-3.54869c-1.41356,-0.00287 -2.7363,0.71185 -4.11234,1.03538c-2.9852,0.70187 -4.64435,0.63198 -7.19962,2.50299c-2.49823,1.82925 -4.66101,4.10492 -7.23528,5.82552c-7.79175,5.20787 -17.63361,10.01525 -24.13334,16.84687c-2.21969,2.33303 -3.74967,5.23644 -5.63389,7.84791c-0.48455,0.67156 -1.02055,1.36224 -1.57053,2.07286c1.69035,0.40635 3.38946,0.71102 5.098,0.83956c6.21737,0.46776 13.32174,-1.10697 19.5493,-1.6085c4.3471,-0.35009 9.06608,0.44162 13.069,-1.65924c2.84053,-1.4908 5.19094,-3.77077 7.79474,-5.64462c1.48811,-1.07094 3.11474,-2.01084 4.61273,-3.06677c-1.31806,-0.62658 -2.61214,-1.27562 -3.30594,-2.48665zM348.35406,159.07951c1.86795,-1.27748 3.83352,-2.44638 5.45467,-3.99293c-0.5884,-0.82937 -1.20322,-1.59101 -1.59069,-1.77363c-2.96459,-1.39724 -5.81133,-1.96179 -8.69681,-2.11122c0.30385,0.53398 0.60273,1.07035 0.89054,1.61199c1.14852,2.16145 2.48522,4.24405 3.9423,6.2658zM340.71606,146.1821c4.79514,-0.11851 9.4467,0.3877 14.06591,2.83827c0.63451,0.33662 1.24352,0.88422 1.81557,1.5282c0.30838,-1.84203 -0.38977,-3.64088 -1.46273,-5.87406c-2.53228,-5.2705 -3.69513,-8.85297 -8.61603,-12.20846c-1.48068,-0.31453 -2.97683,-0.56344 -4.44204,-0.94358c-0.97836,-0.25383 -1.87389,-1.07316 -2.87777,-0.95551c-2.57028,0.30121 -0.79684,5.00905 -0.75656,5.35283c0.39036,3.33176 0.11909,5.2736 1.3818,8.32597c0.27197,0.65744 0.57243,1.30138 0.89185,1.93634zM344.23454,162.25125c-0.59787,-0.80501 -1.17895,-1.61774 -1.74005,-2.43916c-0.08504,-0.1245 -3.50453,-6.53693 -4.55074,-8.50022c-1.23272,0.08603 -2.4888,0.19747 -3.77911,0.30528c-4.6369,0.38744 -9.8622,0.23705 -14.34554,1.64313c-4.94015,1.54934 -10.25285,4.10961 -15.07991,6.56345c0.45932,4.21849 0.57254,8.51277 -0.90894,12.24844c-0.34373,0.86674 -0.74624,1.64839 -1.19833,2.36329c1.34727,0.6882 2.76609,1.25079 3.90385,1.23145c4.29284,-0.07298 9.78738,-2.40967 13.97728,-3.40658c5.9515,-1.41604 13.47788,-2.87864 18.72556,-6.25212c1.7534,-1.12717 3.37598,-2.44011 4.99593,-3.75696zM296.71268,169.62371c-0.18934,0.56944 -1.3083,1.09101 -0.91924,1.54789c0.56133,0.65919 1.49058,0.79482 2.38012,0.98696c0.39374,-0.57588 0.73092,-1.20363 0.9962,-1.89743c0.91775,-2.40025 0.97908,-5.05747 0.78863,-7.74744c-2.15115,1.7411 -2.07705,3.59525 -3.24571,7.11002z"/><path d="M443.10634,174.7413c2.42536,0.60634 1.81902,3.0317 1.81902,3.0317l-1.20419,4.54101c-2.31298,2.77592 -4.723,5.47141 -7.17653,8.12393c-5.34091,0.24215 -11.47057,1.23227 -16.43372,-1.00382c-1.83202,-0.8254 -4.00839,-1.17556 -5.45063,-2.57469c-2.11165,-2.04852 -1.65183,-6.22773 -1.66029,-8.69277c-0.03681,-10.72009 2.41905,-22.13519 9.45692,-30.58809c1.3602,-1.63368 2.29626,-3.88623 4.22733,-4.77507c1.40151,-0.6451 3.06188,0.40611 4.57138,0.72513c2.84458,0.60118 6.70276,1.5121 9.15529,3.72347c-0.44526,-6.12242 -1.0767,-12.62762 -3.21401,-18.11293c-0.42134,-1.08136 -1.4512,-1.83679 -1.94823,-2.88551c-0.78806,-1.66279 -2.21077,-7.37404 -2.61119,-8.87752c-1.82159,-6.83972 -3.62098,-13.08931 -3.63749,-20.20947c0,0 0,-2.5 2.5,-2.5c2.5,0 2.5,2.5 2.5,2.5c-0.01705,6.66215 1.76472,12.51892 3.46918,18.92309c0.11069,0.41588 1.76541,6.92191 2.28214,7.98991c0.54145,1.11909 1.60669,1.9537 2.05177,3.11449c2.91692,7.60742 3.33956,16.73093 3.95651,24.75131l0.23093,3.00212c0.00627,0.07219 0.00947,0.14526 0.00947,0.21907c0,1.38071 -1.11929,2.5 -2.5,2.5c-0.77872,0 -1.47428,-0.35604 -1.93278,-0.91421l-3.1887,-3.82644c-1.32557,-1.12445 -2.27048,-2.84142 -3.88991,-3.47307c-1.42028,-0.55397 -2.99018,-0.62016 -4.44567,-1.07361c-0.61256,-0.19084 -1.18274,-1.18896 -1.7272,-0.84951c-1.0347,0.64509 -1.209,2.12224 -1.91207,3.11845c-4.43223,6.28019 -8.43246,14.61935 -8.40368,22.51839c0.01044,2.86652 -0.21539,5.73886 -0.03228,8.59954c0.03721,0.58139 -0.09475,1.35904 0.37199,1.70768c4.49874,3.36048 10.93393,2.02047 16.11565,2.42149c1.53534,-2.01601 3.1393,-3.98263 4.82347,-5.87607l0.79581,-3.45899c0,0 0.60634,-2.42536 3.0317,-1.81902z"/></g></g></svg>