<svg version="1.1" xmlns="http://www.w3.org/2000/svg" xmlns:xlink="http://www.w3.org/1999/xlink" width="690.49872" height="340.59786" viewBox="0,0,690.49872,340.59786"><g transform="translate(210.06349,-22.2081)"><g data-paper-data="{&quot;isPaintingLayer&quot;:true}" fill-rule="nonzero" stroke="#000000" stroke-width="2" stroke-linecap="butt" stroke-linejoin="miter" stroke-miterlimit="10" stroke-dasharray="" stroke-dashoffset="0" style="mix-blend-mode: normal"><path d="M-209.06349,32.54534v-9.33724h1.4743v9.33724z" fill="#000000"/><path d="M5.20164,361.80596v-47.66908h474.23359v47.66908z" fill="#000000"/><path d="M97.09975,230.59315c0,0 7.37151,-13.20562 7.37151,-18.67448c0,-4.49538 -7.37151,-11.79441 -7.37151,-11.79441c0,0 10.39913,10.81154 15.72588,10.81154c6.3027,0 19.65735,-10.81154 19.65735,-10.81154c0,0 -6.88007,7.57639 -6.88007,12.28584c0,5.36195 6.88007,18.18305 6.88007,18.18305c0,0 -12.13127,-9.82868 -18.18305,-9.82868c-5.72441,0 -17.20018,9.82868 -17.20018,9.82868z" fill="#ffad00"/><path d="M67.87111,240.82685c0,0 -0.17966,10.46419 2.56361,12.54082c3.35658,2.5409 16.10972,1.59474 16.10972,1.59474c0,0 -12.60733,3.05061 -16.49717,5.74037c-3.37195,2.33165 -5.51096,9.47789 -5.51096,9.47789c0,0 -1.72063,-8.10439 -5.10307,-10.66487c-2.67393,-2.02414 -13.57026,-3.47069 -13.57026,-3.47069c0,0 11.66736,-1.75759 15.49312,-4.40304c3.47688,-2.40421 6.51502,-10.81523 6.51502,-10.81523z" fill="#ffad00"/><path d="M150.66603,187.83841c0,0 7.37151,-13.64149 7.37151,-20.64022c0,-7.24437 -7.37151,-22.11452 -7.37151,-22.11452c0,0 14.93088,16.70875 21.62309,16.70875c10.07106,0 32.92606,-16.70875 32.92606,-16.70875c0,0 -9.33724,12.65862 -9.33724,19.65735c0,7.24437 9.33724,23.09739 9.33724,23.09739c0,0 -18.77349,-11.79441 -28.50316,-11.79441c-8.18503,0 -26.04599,11.79441 -26.04599,11.79441z" fill="#ffad00"/><path d="M226.15129,143.41046c0,0 6.38719,-13.83127 6.83386,-20.21235c0.35632,-5.09035 -4.36308,-15.08451 -4.36308,-15.08451c0,0 16.14845,14.43157 24.56563,15.02077c6.72286,0.4706 22.00661,-11.76072 22.00661,-11.76072c0,0 -6.29823,5.52272 -6.63777,10.37335c-0.45164,6.45195 4.16699,24.92351 4.16699,24.92351c0,0 -15.06155,-10.90703 -23.33515,-11.48619c-7.05575,-0.4939 -23.2371,8.22613 -23.2371,8.22613z" fill="#ffad00"/></g></g></svg>