<svg version="1.1" xmlns="http://www.w3.org/2000/svg" xmlns:xlink="http://www.w3.org/1999/xlink" width="483.6051" height="368.63492" viewBox="0,0,483.6051,368.63492"><g transform="translate(5.13561,-15.79413)"><g data-paper-data="{&quot;isPaintingLayer&quot;:true}" fill-rule="nonzero" stroke-linecap="butt" stroke-linejoin="miter" stroke-miterlimit="10" stroke-dasharray="" stroke-dashoffset="0" style="mix-blend-mode: normal"><path d="M-4.13561,383.42905v-58.97205h481.6051v58.97205z" fill="#000000" stroke="#000000" stroke-width="2"/><path d="M39.11057,306.76538v-32.43463h21.13165v32.43463z" fill="#000000" stroke="#000000" stroke-width="2"/><path d="M65.64799,301.85104v-32.43463h10.81154v32.43463z" fill="#000000" stroke="#000000" stroke-width="2"/><path d="M87.76251,309.22255v-31.9432h16.21731v31.9432z" fill="#000000" stroke="#000000" stroke-width="2"/><path d="M119.21427,268.92498v-40.789h12.77728v40.789z" fill="#000000" stroke="#000000" stroke-width="2"/><path d="M152.14033,242.87899v-13.76015h7.86294v13.76015z" fill="#000000" stroke="#000000" stroke-width="2"/><path d="M155.08894,269.90785v-14.25158h10.32011v14.25158z" fill="#000000" stroke="#000000" stroke-width="2"/><path d="M178.18632,271.38215v-42.75474h14.25158v42.75474z" fill="#000000" stroke="#000000" stroke-width="2"/><path d="M216.86661,186.01358l-0.69173,-19.64518l8.3492,-0.29399l0.69173,19.64518z" fill="#000000" stroke="#000000" stroke-width="2"/><path d="M221.4325,221.25591v-20.14878h8.35437v20.14878z" fill="#000000" stroke="#000000" stroke-width="2"/><path d="M246.49562,181.9412v-11.79441h11.30298v11.79441z" fill="#000000" stroke="#000000" stroke-width="2"/><path d="M251.40996,216.34157v-19.65735h6.88007v19.65735z" fill="#000000" stroke="#000000" stroke-width="2"/><path d="M277.45595,190.78701v-13.76015h12.28584v13.76015z" fill="#000000" stroke="#000000" stroke-width="2"/><path d="M272.05017,211.42723v-8.84581h8.35437v8.84581z" fill="#000000" stroke="#000000" stroke-width="2"/><path d="M282.37028,128.37492v-22.11452h8.84581v22.11452z" fill="#000000" stroke="#000000" stroke-width="2"/><path d="M285.31889,153.92948v-13.76015h9.82868v13.76015z" fill="#000000" stroke="#000000" stroke-width="2"/><path d="M312.83918,157.36951v-46.19477h14.25158v46.19477z" fill="#000000" stroke="#000000" stroke-width="2"/><path d="M343.30807,120.51198v-18.18305h11.79441v18.18305z" fill="#000000" stroke="#000000" stroke-width="2"/><path d="M350.18814,155.40378v-17.20018h12.77728v17.20018z" fill="#000000" stroke="#000000" stroke-width="2"/><path d="M419.55785,58.6471c-6.50164,1.38864 -12.88139,1.17137 -19.27176,2.44668c-3.07616,0.6139 -5.26285,5.54658 -8.1977,6.62965c-9.10068,3.3585 -18.73767,-4.03488 -26.2497,-10.46465c-2.57552,-2.20446 -5.35727,-4.16794 -7.40973,-7.52099c-1.61385,-2.63651 -2.84957,-5.73787 -4.2847,-8.59859c-1.10587,4.63613 2.87573,11.78687 4.30998,15.16265c1.48278,3.48998 4.0231,9.92569 5.78741,13.12399c3.50044,6.34551 9.39702,10.52768 14.36894,13.35396c9.98144,5.5269 23.49766,2.97384 33.21396,-2.83745c2.41225,-1.44276 5.54505,-1.7598 7.07051,-4.90414c2.42634,-5.00128 3.40866,-10.47818 3.68519,-16.38085c-1.00747,-0.00342 -2.01494,-0.00684 -3.0224,-0.01025zM362.63053,43.97865c1.31746,2.23615 4.54968,4.61338 6.03623,5.88084c6.08578,5.18887 14.45013,12.37872 21.93165,9.6381c3.05836,-1.12034 5.2113,-5.90582 8.60975,-6.77218c6.5597,-1.67224 13.24378,-1.14761 19.94562,-2.57901c1.17214,-0.00353 2.34429,-0.00705 3.51643,-0.01058c0.05828,-1.60299 0.80183,-3.38549 0.27956,-4.7822c-0.70751,-1.8921 -6.14039,-5.6083 -7.2228,-6.50025c-4.76585,-3.92723 -10.09161,-6.34153 -15.22163,-9.17199c-2.11457,-0.26696 -3.93812,-1.08594 -5.77571,-1.94104c-0.09951,0.53142 -0.28848,1.094 -0.60045,1.67702c-1.78042,3.32734 -4.00596,0.66547 -4.00596,0.66547c-4.60442,-5.8122 -11.14148,-5.87729 -16.79304,-4.37c-4.06807,1.08497 -9.90615,0.61736 -13.32154,4.83602c-0.86526,1.06876 -1.50284,2.46994 -2.15135,3.85827c1.67701,3.08951 3.01385,6.5853 4.77323,9.57154zM388.11613,18.72472c0.84446,-1.256 2.10677,-1.256 2.10677,-1.256l1.11919,0.08275c3.69714,1.13348 6.58015,3.36148 10.37887,3.80381c5.67407,3.04544 11.51784,5.71731 16.78171,10.05461c3.1903,2.62873 7.71116,5.16281 9.58465,10.25203c0.37174,1.0098 0.29279,14.67625 0.23358,16.1863c-0.31637,8.06869 -1.6235,16.24517 -5.14285,22.81347c-1.85586,3.46367 -6.91315,5.80397 -9.23652,7.19328c-11.13899,6.6608 -25.87495,8.95991 -37.32181,2.91028c-5.85008,-3.39785 -12.46021,-8.24591 -16.62574,-15.65638c-2.08898,-3.71629 -4.58843,-10.06834 -6.35271,-14.24107c-2.69783,-6.38067 -6.74876,-14.84121 -4.75815,-22.98702c0.65798,-2.69253 2.31996,-4.56611 3.52584,-6.79479c1.31909,-2.43791 2.39042,-5.28041 4.04765,-7.20235c2.88979,-3.35138 6.79565,-4.40374 10.41984,-5.13759c0.96825,-0.19606 11.00584,-2.96057 11.63155,-2.95189c3.2004,0.04437 6.55011,1.07984 9.60813,2.93056z" fill="#000000" stroke="none" stroke-width="0.5"/><path d="M422.63701,58.64936c-0.27653,5.90267 -1.26033,11.4084 -3.68667,16.40968c-1.52546,3.14434 -4.66188,3.47661 -7.07413,4.91937c-9.71629,5.81128 -23.31832,8.39651 -33.29976,2.86961c-4.97192,-2.82628 -10.89059,-7.06279 -14.39103,-13.4083c-1.76431,-3.1983 -4.30466,-9.66147 -5.78744,-13.15145c-1.43425,-3.37578 -5.41178,-10.54715 -4.30592,-15.18327c1.43512,2.86072 2.77752,6.02139 4.39138,8.6579c2.05246,3.35305 4.83578,5.30699 7.4113,7.51146c7.51204,6.42977 17.04717,13.75685 26.14785,10.39836c2.93485,-1.08307 5.11085,-5.95376 8.18701,-6.56766c6.39037,-1.27531 12.88332,-1.0781 19.38496,-2.46673c1.00747,0.00342 2.01499,0.00762 3.02246,0.01104z" data-paper-data="{&quot;noHover&quot;:false,&quot;origItem&quot;:[&quot;Path&quot;,{&quot;applyMatrix&quot;:true,&quot;selected&quot;:true,&quot;segments&quot;:[[[419.55785,58.6471],[1.00747,0.00342],[-6.50164,1.38864],7],[[400.2861,61.09378],[6.39037,-1.27531],[-3.07616,0.6139],7],[[392.0884,67.72343],[2.93485,-1.08307],[-9.10068,3.3585],7],[[365.8387,57.25878],[7.51204,6.42977],[-2.57552,-2.20446],7],[[358.42897,49.73779],[2.05246,3.35305],[-1.61385,-2.63651],7],[[354.14427,41.1392],[1.43512,2.86072],[-1.10587,4.63613],7],[[358.45425,56.30184],[-1.43425,-3.37578],[1.48278,3.48998],7],[[364.24166,69.42583],[-1.76431,-3.1983],[3.50044,6.34551],7],[[378.6106,82.7798],[-4.97192,-2.82628],[9.98144,5.5269],7],[[411.82456,79.94235],[-9.71629,5.81128],[2.41225,-1.44276],7],[[418.89506,75.03821],[-1.52546,3.14434],[2.42634,-5.00128],7],[[422.58026,58.65736],[-0.27653,5.90267],[-1.00747,-0.00342],7]],&quot;closed&quot;:true}]}" fill="#1d00ff" stroke="none" stroke-width="0.5"/><path d="M357.80107,34.39318c0.6485,-1.38833 1.28718,-2.79718 2.15244,-3.86594c3.41539,-4.21866 9.2609,-3.77609 13.32897,-4.86106c5.65156,-1.50729 12.23378,-1.4807 16.83819,4.3315c0,0 2.24996,2.66831 4.03038,-0.65903c0.31197,-0.58302 0.50155,-1.14522 0.60106,-1.67664c1.83759,0.8551 3.68196,1.69698 5.79653,1.96393c5.13002,2.83047 10.46922,5.292 15.23507,9.21923c1.08241,0.89195 6.51546,4.62135 7.22296,6.51345c0.52227,1.39671 -0.22189,3.18757 -0.28017,4.79056c-1.17214,0.00353 -2.34447,0.00867 -3.51661,0.01219c-6.70184,1.4314 -13.3972,0.94442 -19.95691,2.61667c-3.39845,0.86636 -5.5957,5.68441 -8.65406,6.80475c-7.48152,2.74063 -15.90198,-4.51568 -21.98776,-9.70455c-1.48654,-1.26746 -4.72013,-3.66041 -6.03759,-5.89656c-1.75938,-2.98624 -3.09549,-6.499 -4.7725,-9.58851z" data-paper-data="{&quot;noHover&quot;:false,&quot;origItem&quot;:[&quot;Path&quot;,{&quot;applyMatrix&quot;:true,&quot;selected&quot;:true,&quot;segments&quot;:[[[362.63053,43.97865],[-1.75938,-2.98624],[1.31746,2.23615],7],[[368.66676,49.85949],[-1.48654,-1.26746],[6.08578,5.18887],7],[[390.5984,59.49758],[-7.48152,2.74063],[3.05836,-1.12034],7],[[399.20816,52.7254],[-3.39845,0.86636],[6.5597,-1.67224],7],[[419.15377,50.1464],[-6.70184,1.4314],[1.17214,-0.00353],7],[[422.6702,50.13582],[-1.17214,0.00353],[0.05828,-1.60299],7],[[422.94977,45.35361],[0.52227,1.39671],[-0.70751,-1.8921],7],[[415.72697,38.85336],[1.08241,0.89195],[-4.76585,-3.92723],7],[[400.50534,29.68137],[5.13002,2.83047],[-2.11457,-0.26696],7],[[394.72963,27.74033],[1.83759,0.8551],[-0.09951,0.53142],7],[[394.12918,29.41735],[0.31197,-0.58302],[-1.78042,3.32734],7],[[390.12323,30.08282],[0,0],[-4.60442,-5.8122],7],[[373.33018,25.71282],[5.65156,-1.50729],[-4.06807,1.08497],7],[[360.00865,30.54884],[3.41539,-4.21866],[-0.86526,1.06876],7],[[357.8573,34.40711],[0.6485,-1.38833],[1.67701,3.08951],7]],&quot;closed&quot;:true}]}" fill="#ff0000" stroke="none" stroke-width="0.5"/></g></g></svg>