<svg version="1.1" xmlns="http://www.w3.org/2000/svg" xmlns:xlink="http://www.w3.org/1999/xlink" width="486.25501" height="164.05419" viewBox="0,0,486.25501,164.05419"><g transform="translate(5.63968,-201.04584)"><g data-paper-data="{&quot;isPaintingLayer&quot;:true}" fill="#000000" fill-rule="nonzero" stroke-linecap="butt" stroke-linejoin="miter" stroke-miterlimit="10" stroke-dasharray="" stroke-dashoffset="0" style="mix-blend-mode: normal"><path d="M-4.63968,364.10003v-16.33238h484.25501v16.33238z" stroke="#000000" stroke-width="2"/><path d="M60.28152,345.9957v-20.00716h13.88252v20.00716z" stroke="none" stroke-width="0"/><path d="M101.11246,345.9957v-35.11461h16.74069v35.11461z" stroke="none" stroke-width="0"/><path d="M148.06805,345.9957v-50.63037h19.59885v50.63037z" stroke="none" stroke-width="0"/><path d="M186.44914,344.77077v-71.45415h17.149v71.45415z" stroke="none" stroke-width="0"/><path d="M224.42192,346.81232v-103.30229h15.92407v103.30229z" stroke="none" stroke-width="0"/><path d="M268.51934,345.17908v-144.13324h19.59885v144.13324z" stroke="none" stroke-width="0"/><path d="M304.85888,338.64613v-72.67908h25.7235v72.67908z" stroke="none" stroke-width="0"/><path d="M339.56519,333.74641v-52.26361h22.45702v52.26361z" stroke="none" stroke-width="0"/><path d="M373.04656,346.81232v-52.26361h25.7235v52.26361z" stroke="none" stroke-width="0"/><path d="M410.20272,346.81232v-31.84814h14.69914v31.84814z" stroke="none" stroke-width="0"/><path d="M433.47636,336.60458v-22.45702h6.53295v22.45702z" stroke="none" stroke-width="0"/><path d="M452.66691,331.29656v-17.96562h3.67479v17.96562z" stroke="none" stroke-width="0"/><path d="M467.36605,334.56303v-9.79943h3.26648v9.79943z" stroke="none" stroke-width="0"/></g></g></svg>