<svg version="1.1" xmlns="http://www.w3.org/2000/svg" xmlns:xlink="http://www.w3.org/1999/xlink" width="56.22779" height="89.97303" viewBox="0,0,56.22779,89.97303"><g transform="translate(-206.52869,-138.28339)"><g data-paper-data="{&quot;isPaintingLayer&quot;:true}" fill="#9966ff" fill-rule="nonzero" stroke="none" stroke-width="0.5" stroke-linecap="butt" stroke-linejoin="miter" stroke-miterlimit="10" stroke-dasharray="" stroke-dashoffset="0" style="mix-blend-mode: normal"><path d="M235.25118,180.96055c0.61191,-0.32329 1.24512,-0.61685 1.81181,-0.92898c2.43023,-1.33856 5.64427,-4.44177 8.52469,-5.16188c2.26945,-0.56736 4.66557,0.48861 7.00429,0.43661c1.1041,-0.02455 5.67455,-1.69098 7.08219,-0.28335c1.80406,1.80406 0.20995,3.8273 -1.40108,4.49467c-3.9277,1.62705 -8.26923,-1.03028 -11.75511,0.36555c-1.4187,0.56808 -5.66105,3.86515 -8.73646,5.42117c3.26215,5.65232 9.4023,13.8761 8.81904,20.11092c3.66433,0.93492 7.90329,5.10604 10.63802,6.92915c1.41148,0.94096 7.05366,3.51253 5.11778,6.41635c-2.29451,3.44177 -12.57149,-5.58896 -15.06797,-7.08838c-0.62484,-0.37529 -1.50724,-0.60325 -2.30559,-0.88153c-1.96984,4.76671 -5.0215,9.21895 -8.46465,12.84456c-0.9287,0.97792 -1.39968,3.72395 -2.56916,4.19174c-2.18844,0.87538 -3.14588,0.46504 -4.02126,-1.7234c-0.9705,-2.42624 3.73382,-6.30725 4.81813,-7.67436c1.87829,-2.36817 7.08219,-9.65884 6.73781,-13.17119c-0.52769,-5.3819 -3.46684,-9.81044 -6.36552,-14.15389c-0.86279,-1.29283 -1.46428,-3.19195 -2.21572,-4.90246c-0.1293,0.16154 -0.27823,0.30668 -0.44317,0.43182c-0.07697,0.07451 -0.16278,0.14011 -0.25964,0.19459c-0.13964,0.07855 -0.28792,0.13614 -0.44212,0.17909c-0.25342,0.08649 -0.52517,0.13341 -0.80788,0.13341c-0.04267,0 -0.08509,-0.00107 -0.12723,-0.00318c-0.608,0.03649 -1.22528,0.03986 -1.72055,0.31561c-2.48556,1.38389 -3.99456,4.33378 -5.69952,6.42437c-2.01728,2.47354 -5.68299,0.04072 -4.16025,-2.7735c1.40916,-2.60431 5.22346,-7.80875 8.45892,-8.48092c0.62036,-0.12888 1.38577,-0.40495 2.1201,-0.58428c-2.06509,-2.02709 -5.39009,-5.47855 -4.62831,-6.93347c-0.00111,-0.03055 -0.00166,-0.06124 -0.00166,-0.09206c0,-0.30637 0.05511,-0.59987 0.15596,-0.87113l-0.51489,-0.04291l-2.05884,-0.14706l-0.13127,-0.04296l-0.13783,0.00899l-1.51949,-0.27627l-1.51815,-0.13801l-0.04082,-0.01424l-0.04292,0.0052l-1.18491,-0.14811l-0.04878,-0.01888l-0.05214,0.00417l-0.88869,-0.14811l-0.09345,-0.04063h-0.1019l-0.29388,-0.07347h-0.13658l-0.2563,-0.06408l-0.13413,0.05309l-0.41581,-0.19058l-0.44375,-0.11094l-0.07157,-0.12525l-0.24016,-0.11008l-0.7272,-0.58176l-1.31951,-1.02629l-0.14268,-0.18203l-0.191,-0.13044l-1.18491,-1.33303l-0.05774,-0.11047l-0.09557,-0.08002l-1.18491,-1.62926l-0.02973,-0.07361l-0.05759,-0.05463l-1.0368,-1.62926l-0.02412,-0.07237l-0.05212,-0.05571l-0.74057,-1.33303l-0.02937,-0.10946l-0.06977,-0.0893l-0.59246,-1.33303l-0.02119,-0.12108l-0.06599,-0.1037l-0.13743,-0.4123l-0.58091,-1.59751l-0.04505,-0.4325l-0.10546,-0.42186v-2.0736l0.01552,-0.06207l-0.0124,-0.06277l0.14811,-2.96228l0.01851,-0.06092l-0.00922,-0.063l0.44434,-4.44343l0.01829,-0.05095l-0.00557,-0.05385l0.29623,-2.0736l0.10966,-0.26917l0.0371,-0.28827l0.62728,-1.60304l-0.62158,-0.69471l0.09882,-1.28468l0.14811,-0.44434l0.07137,-0.11215l-0.01216,-0.09728l0.34166,-0.4205l0.29088,-0.4571l0.09613,-0.01923l0.08383,-0.10317l1.18491,-0.88869l0.10469,-0.04408l0.25211,-0.64429l0.22212,-0.31248l0.00967,-0.17407l0.29194,-0.25024l0.22278,-0.3134l0.17248,-0.02539l0.29108,-0.2495l0.74279,-0.37139l0.01393,-0.02438l0.06966,-0.01742l0.06231,-0.03115l0.56075,-0.12461l0.55728,-0.13932h0.06966l0.07009,-0.01558l0.02336,0.01558h0.42934l0.29857,0.07464h0.30776l1.65226,0.41306l0.51993,0.07428l2.11337,-0.24863l0.14767,0.01899l0.14444,-0.03611h2.51794l0.13657,0.03414l0.13951,-0.01885l1.33303,0.14811l0.08289,0.03079l0.08824,-0.00575l3.25851,0.59246l0.11426,0.05169l0.12533,0.00418l1.0368,0.29623l0.00445,0.00256l0.16226,0.04057l0.56075,0.12461l0.06231,0.03115l0.06966,0.01742l0.01393,0.02438l0.05732,0.02866l1.38459,0.55384l0.03922,0.02832l0.04765,0.00834l1.33303,0.59246l0.1692,0.13219l0.2022,0.07222l0.64922,0.43281l0.91544,0.34329l0.0714,0.04924l0.0853,0.01567l1.62926,0.74057l0.13114,0.10424l0.15935,0.05168l1.18491,0.74057l0.19808,0.20541l0.24469,0.14682l0.99822,0.99822l0.1127,0.00626l0.32251,0.37626l0.37626,0.32251l0.00626,0.1127l0.55388,0.55388l0.05947,0.09911l0.09332,0.0682l0.66797,0.80157l0.66038,0.66038l0.20676,0.34461l0.26154,0.30513l0.19542,0.39083l0.71499,0.95333l1.44013,1.72816l0.12636,0.26175l0.18915,0.22068l1.18491,2.36983l0.08101,0.36456l0.1489,0.34248l0.29623,1.77737l-0.01666,0.20829l0.05068,0.20271v1.62926l-0.05068,0.20271l0.01666,0.20829l-0.10653,0.63919l0.00592,0.01184l-0.0148,0.04143l-0.0327,0.19622l-0.2093,0.4814l-0.17655,0.49435l-0.11035,0.16552l-0.01754,0.04035l-0.01241,0.00459l-0.17782,0.26673l-0.05112,0.25561l-0.14295,0.30178l-0.07244,0.32597l-0.48855,0.97709l-0.2324,0.81339l-0.09754,0.16907l-0.03637,0.19177l-0.88869,1.92548l-0.06934,0.0862l-0.02995,0.1065l-0.59246,1.0368l-0.08908,0.09296l-0.04719,0.11979l-0.74057,1.0368l-0.0531,0.04523l-0.02906,0.06341l-0.59246,0.74057l-0.37314,0.2843l-0.33869,0.32457l-1.0368,0.59246l-0.06838,0.01923l-0.05393,0.04623l-0.98329,0.49164l-0.97333,0.73l-0.71008,0.56806l-0.15496,0.07102l-0.12054,0.12054l-1.48114,0.88869l-0.01359,0.00414l-0.02265,0.03963l-0.60238,0.1506l-0.59402,0.18079l-0.03981,-0.02233l-0.01378,0.00345h-1.62926l-0.13657,-0.03414l-0.13951,0.01885l-1.25385,-0.13932c0.43679,0.69046 0.97125,1.52752 1.71206,2.44749c1.45694,1.80928 2.37692,2.69277 3.22834,3.82165c0.0008,-0.00043 0.00161,-0.00085 0.00241,-0.00128zM226.192,144.79805c0,1.38071 -1.11929,2.5 -2.5,2.5c-0.14972,0 -0.29636,-0.01316 -0.43883,-0.03839l-0.0357,0.01275l-0.06583,-0.03292c-0.41343,-0.09109 -0.78847,-0.28453 -1.0972,-0.55238l-0.79254,-0.67932l-0.90964,-0.45482l-0.03477,-0.0298l-0.04432,-0.01152l-1.45035,-0.7911l-2.22996,-0.78049l-2.06131,0.3092l-0.54673,0.27336l-1.63359,4.17474l-0.24773,1.7341l-0.43291,4.32905l-0.14189,2.83783l0,1.5707l0.44194,1.21534l0.0036,0.03451l0.01863,0.02928l0.10995,0.32985l0.49829,1.12116l0.65037,1.17067l0.9551,1.50088l1.06727,1.4675l0.9511,1.06999l1.15185,0.89588l0.01087,0.01387l0.01602,0.00734l0.14909,0.11927h0.08042l0.4956,0.1239l0.7399,0.12332l1.09251,0.13656l1.58731,0.1443l0.10738,0.03746l0.11349,-0.0074l1.49563,0.27193l1.93813,0.13844l0.01447,0.00474l0.01503,-0.00245l1.77737,0.14811l0.05002,0.01703l0.05245,-0.00636l2.35284,0.2941l2.51142,0.27905l0.79833,0l0.74317,-0.4459l0.60926,-0.48741l0.03645,-0.01671l0.02529,-0.03112l1.18491,-0.88869l0.20943,-0.08818l0.17253,-0.14789l1.12285,-0.56142l0.56258,-0.32147l0.25204,-0.31506l0.62745,-0.87843l0.47588,-0.83278l0.76234,-1.65173l0.2432,-0.85121l0.11697,-0.20274l0.05078,-0.22849l0.44273,-0.88546l0.08246,-0.41228l0.20795,-0.439l0.16338,-0.45746l0.29481,-0.44222l0.02588,-0.15531l0,-1.21544l-0.20041,-1.20248l-0.88704,-1.77407l-1.29539,-1.55447l-0.02852,-0.05909l-0.05092,-0.04137l-0.88869,-1.18491l-0.08818,-0.20943l-0.14789,-0.17253l-0.1148,-0.22959l-0.4537,-0.4537l-0.05947,-0.09911l-0.09332,-0.0682l-0.66797,-0.80157l-0.66038,-0.66038l-0.16663,-0.27771l-0.27771,-0.16663l-0.98359,-0.98359l-0.80338,-0.50211l-1.40161,-0.6371l-1.10546,-0.41455l-0.23738,-0.16371l-0.27156,-0.09699l-0.71168,-0.47445l-1.09554,-0.48691l-1.43736,-0.57494l-0.0781,-0.05641l-0.27268,-0.00909l-0.55113,-0.15747c0.02307,0.13646 0.03508,0.27669 0.03508,0.41971z"/></g></g></svg>