<svg version="1.1" xmlns="http://www.w3.org/2000/svg" xmlns:xlink="http://www.w3.org/1999/xlink" width="56.33475" height="43.58114" viewBox="0,0,56.33475,43.58114"><defs><linearGradient x1="246.28131" y1="198.4626" x2="244.21903" y2="155.287" gradientUnits="userSpaceOnUse" id="color-1"><stop offset="0" stop-color="#ff0000"/><stop offset="1" stop-color="#414042"/></linearGradient><linearGradient x1="245.83382" y1="196.96589" x2="243.92626" y2="157.02945" gradientUnits="userSpaceOnUse" id="color-2"><stop offset="0" stop-color="#ff0000"/><stop offset="1" stop-color="#a4a5a8"/></linearGradient></defs><g transform="translate(-217.08264,-155.08443)"><g data-paper-data="{&quot;isPaintingLayer&quot;:true}" fill-rule="nonzero" stroke="none" stroke-width="1" stroke-linecap="butt" stroke-linejoin="miter" stroke-miterlimit="10" stroke-dasharray="" stroke-dashoffset="0" style="mix-blend-mode: normal"><path d="M262.94502,155.0855c4.75078,-0.05111 8.69013,1.73601 8.7978,3.99016l1.67231,35.01115c0.10769,2.25462 -3.65802,4.12368 -8.4078,4.17478l-37.45338,0.40292c-4.75078,0.05111 -8.68909,-1.73507 -8.79678,-3.98969l-1.67228,-35.01067c-0.10774,-2.25557 3.656,-4.12414 8.40678,-4.17524l37.45338,-0.40292z" fill="url(#color-1)"/><path d="M225.19979,157.23133l37.45238,-0.40291c2.86126,-0.03078 5.2414,1.04824 5.30631,2.40709l1.67228,35.01067c0.06484,1.35742 -2.20978,2.48747 -5.07105,2.51825l-37.45338,0.40292c-2.86126,0.03078 -5.24145,-1.04919 -5.30629,-2.40661l-1.67228,-35.01067c-0.06491,-1.35884 2.21076,-2.48796 5.07203,-2.51874z" fill="url(#color-2)"/></g></g></svg>