<svg version="1.1" xmlns="http://www.w3.org/2000/svg" xmlns:xlink="http://www.w3.org/1999/xlink" width="573.70129" height="191.32164" viewBox="0,0,573.70129,191.32164"><g transform="translate(92.20129,-163.84502)"><g data-paper-data="{&quot;isPaintingLayer&quot;:true}" fill-rule="nonzero" stroke-width="2" stroke-linecap="butt" stroke-linejoin="miter" stroke-miterlimit="10" stroke-dasharray="" stroke-dashoffset="0" style="mix-blend-mode: normal"><path d="M5.5,354.16666v-26h475v26z" fill="#000000" stroke="#000000"/><path d="M-91.20129,349.40089v-5.71633h1.63324v5.71633z" fill="#000000" stroke="#000000"/><path d="M100.29585,314.69459v-14.29083h40.01433v14.29083z" fill="#000000" stroke="#000000"/><path d="M146.0265,293.87081v-15.51576h39.19771v15.51576z" fill="#000000" stroke="#000000"/><path d="M190.94054,272.23041v-11.84097h40.83095v11.84097z" fill="#000000" stroke="#000000"/><path d="M238.71275,252.63155v-11.43266h42.05587v11.43266z" fill="#000000" stroke="#000000"/><path d="M279.95201,236.70748v-8.16619h33.48138v8.16619z" fill="#000000" stroke="#000000"/><path d="M305.6755,223.23327v-17.149h36.74785v17.149z" fill="#000000" stroke="#000000"/><path d="M338.74857,199.95963v-12.65759h32.66476v12.65759z" fill="#000000" stroke="#000000"/><path d="M374.27149,180.36078v-11.84097h38.38109v11.84097z" fill="#000000" stroke="#000000"/><path d="M450.76146,223.23327v40.42264h-14.15473v-40.42264z" fill="#0e0000" stroke="#000000"/><path d="M383.2543,190.16021v-25.31519h21.23209v25.31519z" fill="#ffffff" stroke="#00ff15"/></g></g></svg>